<?xml version="1.0" encoding="UTF-8" standalone="no"?>
<!-- Created with Inkscape (http://www.inkscape.org/) -->

<svg
   width="55mm"
   height="55mm"
   viewBox="0 0 207.87401 207.87401"
   version="1.1"
   id="svg5"
   inkscape:version="1.1.1 (3bf5ae0d25, 2021-09-20)"
   sodipodi:docname="jarujarudb.svg"
   xmlns:inkscape="http://www.inkscape.org/namespaces/inkscape"
   xmlns:sodipodi="http://sodipodi.sourceforge.net/DTD/sodipodi-0.dtd"
   xmlns="http://www.w3.org/2000/svg"
   xmlns:svg="http://www.w3.org/2000/svg">
  <sodipodi:namedview
     id="namedview7"
     pagecolor="#ffffff"
     bordercolor="#999999"
     borderopacity="1"
     inkscape:pageshadow="0"
     inkscape:pageopacity="0"
     inkscape:pagecheckerboard="0"
     inkscape:document-units="mm"
     showgrid="false"
     inkscape:zoom="1.4142136"
     inkscape:cx="94.045202"
     inkscape:cy="32.880465"
     inkscape:window-width="1966"
     inkscape:window-height="999"
     inkscape:window-x="152"
     inkscape:window-y="152"
     inkscape:window-maximized="0"
     inkscape:current-layer="layer1" />
  <defs
     id="defs2" />
  <g
     inkscape:label="Layer 1"
     inkscape:groupmode="layer"
     id="layer1">
    <rect
       style="opacity:0.613223;fill:#2dcaff;fill-opacity:1;stroke-width:0.417723;paint-order:stroke fill markers"
       id="rect864"
       width="207.89149"
       height="207.90211"
       x="-0.0044951998"
       y="-0.013851537" />
    <path
       id="text2653-1"
       style="font-style:normal;font-variant:normal;font-weight:normal;font-stretch:normal;font-size:135.211px;line-height:1.25;font-family:HGPSoeiKakupoptai;-inkscape-font-specification:'HGPSoeiKakupoptai, Normal';font-variant-ligatures:normal;font-variant-caps:normal;font-variant-numeric:normal;font-variant-east-asian:normal;fill:#f9f9f9;stroke:#000000;stroke-width:1.37632;stroke-miterlimit:4;stroke-dasharray:none;stroke-opacity:1"
       d="m 18.22687,2.4286438 c -3.12397,5.86123 -6.24863,11.7219802 -9.37286,17.5830202 9.51211,4.46198 19.02343,8.92615 28.53444,13.39116 2.91338,-5.7921 5.82818,-11.58329 8.74202,-17.3751 -9.11273,-4.88683 -18.22572,-9.7730602 -27.33891,-14.6587812 -0.18823,0.35323 -0.37646,0.70647 -0.56469,1.059701 z m 51.13849,1.02349 c -3.51137,0.83274 -7.02339,1.66242 -10.53532,2.49231 -0.19792,0.18328 -0.56517,0.14373 -0.82684,0.23019 -2.90814,0.52829 -5.81635,1.05596 -8.72442,1.58472 1.82057,7.6306002 3.64151,15.2611002 5.46022,22.8922702 4.58809,-1.15711 9.17601,-2.31506 13.76396,-3.47288 -0.43984,-0.4777 0.21708,-0.4549 0.51398,-0.59638 3.23489,-1.08905 6.47007,-2.17695 9.70474,-3.26684 -2.809,-6.69462 -5.61546,-13.39062 -8.42542,-20.0847202 -0.3103,0.0738 -0.6206,0.14755 -0.9309,0.22133 z m 95.30695,2.50035 c -1.20052,19.6267002 -2.46706,39.2645202 -3.38076,58.9177262 -0.13093,3.67195 -0.3995,7.36832 -0.018,11.03169 0.40718,3.85441 1.6736,7.76344 4.2365,10.44243 2.48996,2.63271 5.96044,3.83504 9.32448,3.70996 4.42519,-0.11071 8.6446,-1.9708 12.54878,-4.2073 4.12458,-2.41222 7.93472,-5.43639 11.87403,-8.2037 2.62586,-1.89091 5.25182,-3.78157 7.87758,-5.67265 -2.6953,-6.76099 -5.38835,-13.523146 -8.08283,-20.284576 -5.65789,4.0561 -11.31493,8.113756 -16.97254,12.170476 -0.24696,-11.368686 -0.0856,-22.758716 0.47395,-34.065736 0.35105,-7.1832 0.8655,-14.30781 1.53159,-21.4456702 0.0968,-1.07202 0.19319,-2.14408 0.28868,-3.21626 -6.54005,-0.16077 -13.08,-0.32233 -19.62,-0.4829 -0.0272,0.4355 -0.0544,0.87102 -0.0815,1.30651 z m -24.07955,7.6285302 c -2.1648,11.87692 -4.33088,23.75423 -6.32123,35.67022 -1.91301,12.022816 -3.51641,24.104656 -5.14735,36.180316 6.83287,1.58381 13.6661,3.1656 20.49887,4.74989 1.13854,-11.43665 2.28063,-22.83883 3.90704,-34.203316 0.79812,-5.4893 1.87995,-10.94973 2.92227,-16.35691 1.54004,-7.86903 3.21066,-15.70101 4.89681,-23.52106 -6.83984,-1.27047 -13.68007,-2.53801 -20.52013,-3.80688 -0.0788,0.42925 -0.15751,0.8585 -0.23628,1.28774 z M 7.29225,24.870204 C 5.1614996,31.829234 3.0287096,38.787474 0.89757959,45.746354 11.26256,48.315584 21.62718,50.886724 31.99202,53.456704 23.38354,59.59948 14.77466,65.74156 6.1664196,71.88479 9.80939,78.41031 13.45422,84.93449 17.0975,91.45979 37.61096,75.93294 58.12317,60.40397 78.63662,44.877124 c -3.30684,-5.8753 -6.61323,-11.75094 -9.91865,-17.62728 -11.55227,8.24296 -23.10411,16.48671 -34.65622,24.72997 1.30517,-5.77823 2.60889,-11.5569 3.91501,-17.33485 -10.09894,-3.68105 -20.19832,-7.36051 -30.29702,-11.04238 -0.12916,0.42254 -0.25832,0.84508 -0.38749,1.26762 z m 86.51533,8.28312 c -4.5617,1.5045 -9.12357,3.00909 -13.68599,4.51112 1.49083,3.26475 2.98092,6.52993 4.47143,9.79487 -3.19952,1.05476 -6.39896,2.10978 -9.59851,3.16435 1.98192,5.88152 3.96289,11.763426 5.94221,17.646066 3.53428,-1.46139 7.06927,-2.92053 10.60384,-4.38099 3.28665,9.03308 6.57554,18.06512 9.86077,27.09888 4.96252,-1.76208 9.92529,-3.52323 14.88861,-5.28242 -2.41843,-6.44096 -4.83897,-12.88091 -7.25824,-19.32147 4.86851,2.51348 9.73749,5.02582 14.60626,7.53865 1.72152,-5.28981 3.52967,-10.54344 5.19379,-15.856576 1.07257,-3.76835 1.58173,-7.94706 0.43587,-11.77354 -1.09083,-3.73215 -3.88167,-6.81653 -7.28096,-7.71418 -3.63232,-1.0537 -7.43994,-0.35001 -11.00122,0.72232 -3.90832,1.12862 -7.81573,2.26079 -11.72236,3.39696 -1.50027,-3.28646 -3.00108,-6.5726 -4.50096,-9.85927 -0.31819,0.10508 -0.63636,0.21015 -0.95454,0.31523 z m 15.24184,31.769626 c -0.14919,0.38746 -0.29807,1.07724 -0.44848,0.31435 -0.8271,-2.20138 -1.65418,-4.40277 -2.48127,-6.604156 1.97995,-0.58843 3.95989,-1.17685 5.93983,-1.76528 -1.00334,2.685026 -2.00671,5.370056 -3.01008,8.055086 z m -90.82255,53.58339 c -3.12397,5.86124 -6.24863,11.72198 -9.37286,17.58303 9.51211,4.46197 19.02343,8.92615 28.53444,13.39117 2.91338,-5.79211 5.82818,-11.58329 8.74202,-17.3751 -9.11273,-4.88684 -18.22572,-9.77308 -27.33891,-14.65878 -0.18823,0.35323 -0.37646,0.70645 -0.56469,1.05968 z m 51.13849,1.0235 c -3.51137,0.83275 -7.02339,1.66243 -10.53532,2.49231 -0.19792,0.18328 -0.56517,0.14372 -0.82684,0.23019 -2.90814,0.5283 -5.81635,1.05595 -8.72442,1.58473 1.82057,7.6306 3.64151,15.26109 5.46022,22.89227 4.58809,-1.15712 9.17601,-2.31508 13.76396,-3.47287 -0.43984,-0.4777 0.21708,-0.4549 0.51398,-0.59639 3.23489,-1.08905 6.47007,-2.17696 9.70474,-3.26686 -2.809,-6.6946 -5.61546,-13.3906 -8.42542,-20.08471 -0.3103,0.0739 -0.6206,0.14757 -0.9309,0.22133 z m 95.30695,2.50037 c -1.20052,19.62668 -2.46706,39.26451 -3.38076,58.91771 -0.1312,3.67194 -0.39912,7.3684 -0.018,11.03169 0.40718,3.8544 1.6736,7.76344 4.2365,10.44243 2.48996,2.63272 5.96044,3.83505 9.32448,3.70998 4.47146,-0.11293 8.73067,-2.00777 12.67028,-4.2774 4.1133,-2.42406 7.91957,-5.44385 11.85527,-8.20742 2.59161,-1.8663 5.18332,-3.73241 7.77484,-5.59883 -2.6953,-6.76099 -5.38835,-13.52317 -8.08283,-20.28462 -5.65789,4.05613 -11.31493,8.11378 -16.97254,12.17051 -0.24696,-11.36871 -0.0856,-22.75873 0.47395,-34.06576 0.35105,-7.18318 0.8655,-14.30779 1.53159,-21.44565 0.0968,-1.07203 0.19319,-2.1441 0.28868,-3.21625 -6.54,-0.16077 -13.07995,-0.32235 -19.61995,-0.48292 -0.0272,0.43551 -0.0544,0.871 -0.0815,1.30653 z m -24.07955,7.62852 c -2.1648,11.87692 -4.33088,23.75425 -6.32123,35.67023 -1.91301,12.02281 -3.51641,24.10463 -5.14735,36.18031 6.83287,1.58379 13.6661,3.16559 20.49887,4.74988 1.13854,-11.43665 2.28063,-22.83882 3.90704,-34.20331 0.79812,-5.4893 1.87995,-10.94974 2.92227,-16.35691 1.54004,-7.86905 3.21066,-15.70102 4.89681,-23.52106 -6.83984,-1.27048 -13.68007,-2.53801 -20.52013,-3.80688 -0.0788,0.42924 -0.15751,0.85848 -0.23628,1.28774 z M 7.29225,140.94792 c -2.1307504,6.95902 -4.2635404,13.91725 -6.39467041,20.87614 10.36498041,2.56923 20.72960041,5.14038 31.09444041,7.71036 -8.60848,6.14278 -17.21736,12.28485 -25.8256004,18.42809 3.6429704,6.52552 7.2878004,13.0497 10.9310804,19.575 20.51344,-15.52645 41.02568,-31.05489 61.53912,-46.58133 -3.30693,-5.8757 -6.61314,-11.75191 -9.91865,-17.62862 -11.55227,8.24297 -23.10411,16.48669 -34.65622,24.72996 1.30517,-5.77823 2.60889,-11.55688 3.91501,-17.33486 -10.09894,-3.68102 -20.19832,-7.36051 -30.29702,-11.04237 -0.12916,0.42254 -0.25832,0.84507 -0.38749,1.26763 z m 86.51533,8.28311 c -4.5617,1.50449 -9.12357,3.0091 -13.68599,4.51112 1.49083,3.26475 2.98092,6.52993 4.47143,9.79488 -3.19952,1.05474 -6.39896,2.10976 -9.59851,3.16434 1.98192,5.88152 3.96289,11.76343 5.94221,17.64607 3.53383,-1.46109 7.06849,-2.9196 10.60266,-4.37965 3.28702,9.03265 6.57645,18.06417 9.86195,27.09753 4.96252,-1.76208 9.92529,-3.52321 14.88861,-5.28241 -2.41843,-6.44096 -4.83897,-12.88092 -7.25824,-19.32148 4.86851,2.51349 9.73749,5.02583 14.60626,7.53866 1.72152,-5.2898 3.52967,-10.54343 5.19379,-15.85659 1.07257,-3.76835 1.58173,-7.94706 0.43587,-11.77353 -1.09141,-3.73164 -3.88151,-6.81677 -7.28096,-7.71416 -3.63232,-1.05371 -7.43994,-0.35004 -11.00122,0.7223 -3.90832,1.12862 -7.81573,2.26079 -11.72236,3.39696 -1.50027,-3.28646 -3.00108,-6.57259 -4.50096,-9.85927 -0.31819,0.10505 -0.63636,0.21017 -0.95454,0.31523 z m 15.24184,31.76964 c -0.14919,0.38744 -0.29807,1.07725 -0.44848,0.31435 -0.8271,-2.20139 -1.65418,-4.40278 -2.48127,-6.60417 1.97995,-0.58841 3.95988,-1.17685 5.93983,-1.76528 -1.00334,2.68505 -2.00671,5.37007 -3.01008,8.0551 z" />
    <path
       style="fill:none;stroke:#000000;stroke-width:1.43622;stroke-linecap:butt;stroke-linejoin:miter;stroke-miterlimit:4;stroke-dasharray:none;stroke-opacity:1"
       d="M 58.83004,5.9444438 68.71797,27.249854"
       id="path2476-3" />
    <path
       style="fill:none;stroke:#000000;stroke-width:1.43622048;stroke-linecap:butt;stroke-linejoin:miter;stroke-opacity:1;stroke-miterlimit:4;stroke-dasharray:none"
       d="m 58.83004,122.02215 9.88793,21.30541"
       id="path2476" />
  </g>
</svg>
